<svg width="400" height="400" viewBox="0 0 400 400" fill="none" xmlns="http://www.w3.org/2000/svg">
<rect width="400" height="400" fill="#121212"/>
<path d="M331.203 192.813V157.415H337.412L338.054 165.123H338.34C339.482 162.601 340.623 160.746 341.765 159.556C342.955 158.319 344.311 157.51 345.833 157.13C347.403 156.749 349.259 156.559 351.4 156.559V164.052H349.544C347.689 164.052 346.047 164.29 344.62 164.766C343.24 165.194 342.075 165.86 341.123 166.764C340.219 167.668 339.529 168.834 339.053 170.261C338.578 171.641 338.34 173.282 338.34 175.185V192.813H331.203Z" fill="#FBFBFB"/>
<path d="M312.635 193.669C309.162 193.669 306.094 192.908 303.429 191.385C300.765 189.815 298.671 187.651 297.149 184.891C295.626 182.132 294.865 178.896 294.865 175.185C294.865 171.474 295.603 168.239 297.078 165.479C298.6 162.672 300.693 160.484 303.358 158.914C306.07 157.344 309.186 156.559 312.707 156.559C316.228 156.559 319.249 157.344 321.77 158.914C324.292 160.436 326.243 162.458 327.622 164.98C329.05 167.502 329.763 170.309 329.763 173.401C329.763 173.877 329.763 174.4 329.763 174.971C329.763 175.542 329.716 176.137 329.621 176.755H300.075V171.76H322.627C322.484 168.715 321.485 166.36 319.629 164.694C317.774 162.982 315.442 162.125 312.635 162.125C310.732 162.125 308.948 162.553 307.283 163.41C305.665 164.266 304.357 165.551 303.358 167.264C302.359 168.976 301.859 171.141 301.859 173.758V175.756C301.859 178.373 302.359 180.585 303.358 182.393C304.357 184.154 305.665 185.486 307.283 186.39C308.948 187.294 310.709 187.746 312.564 187.746C314.848 187.746 316.727 187.246 318.202 186.247C319.724 185.2 320.843 183.797 321.556 182.036H328.764C328.098 184.273 327.028 186.271 325.553 188.031C324.078 189.744 322.246 191.124 320.058 192.17C317.917 193.17 315.442 193.669 312.635 193.669Z" fill="#FBFBFB"/>
<path d="M273.79 192.813L261.515 157.415H269.009L278.572 187.532H278.928L288.563 157.415H295.914L283.567 192.813H273.79Z" fill="#FBFBFB"/>
<path d="M252.888 192.813V157.415H260.024V192.813H252.888ZM256.456 151.135C255.076 151.135 253.934 150.707 253.03 149.85C252.126 148.994 251.674 147.9 251.674 146.567C251.674 145.283 252.126 144.212 253.03 143.356C253.934 142.452 255.076 142 256.456 142C257.788 142 258.906 142.452 259.81 143.356C260.714 144.212 261.166 145.283 261.166 146.567C261.166 147.852 260.714 148.946 259.81 149.85C258.906 150.707 257.788 151.135 256.456 151.135Z" fill="#FBFBFB"/>
<path d="M241.295 192.813V142.856H248.432V192.813H241.295Z" fill="#FBFBFB"/>
<path d="M222.371 193.669C218.898 193.669 215.829 192.908 213.165 191.385C210.5 189.815 208.407 187.651 206.884 184.891C205.362 182.132 204.601 178.896 204.601 175.185C204.601 171.474 205.338 168.239 206.813 165.479C208.335 162.672 210.429 160.484 213.093 158.914C215.805 157.344 218.921 156.559 222.442 156.559C225.963 156.559 228.984 157.344 231.506 158.914C234.027 160.436 235.978 162.458 237.358 164.98C238.785 167.502 239.499 170.309 239.499 173.401C239.499 173.877 239.499 174.4 239.499 174.971C239.499 175.542 239.451 176.137 239.356 176.755H209.81V171.76H232.362C232.219 168.715 231.22 166.36 229.365 164.694C227.509 162.982 225.178 162.125 222.371 162.125C220.468 162.125 218.684 162.553 217.018 163.41C215.401 164.266 214.092 165.551 213.093 167.264C212.094 168.976 211.594 171.141 211.594 173.758V175.756C211.594 178.373 212.094 180.585 213.093 182.393C214.092 184.154 215.401 185.486 217.018 186.39C218.684 187.294 220.444 187.746 222.299 187.746C224.583 187.746 226.462 187.246 227.937 186.247C229.46 185.2 230.578 183.797 231.292 182.036H238.5C237.833 184.273 236.763 186.271 235.288 188.031C233.813 189.744 231.981 191.124 229.793 192.17C227.652 193.17 225.178 193.669 222.371 193.669Z" fill="#FBFBFB"/>
<path d="M161.561 192.813V142.856H177.547C183.399 142.856 188.204 143.879 191.963 145.925C195.769 147.971 198.576 150.873 200.384 154.632C202.239 158.343 203.167 162.768 203.167 167.906C203.167 173.044 202.239 177.469 200.384 181.18C198.576 184.891 195.769 187.769 191.963 189.815C188.204 191.814 183.399 192.813 177.547 192.813H161.561ZM168.697 186.818H177.261C181.876 186.818 185.54 186.057 188.252 184.534C191.011 183.012 192.962 180.847 194.104 178.04C195.245 175.185 195.816 171.807 195.816 167.906C195.816 163.957 195.245 160.555 194.104 157.701C192.962 154.846 191.011 152.657 188.252 151.135C185.54 149.612 181.876 148.851 177.261 148.851H168.697V186.818Z" fill="#FBFBFB"/>
<path d="M131.203 193.669C127.73 193.669 124.661 192.908 121.997 191.385C119.333 189.815 117.239 187.651 115.717 184.891C114.194 182.132 113.433 178.896 113.433 175.185C113.433 171.474 114.171 168.239 115.645 165.479C117.168 162.672 119.261 160.484 121.926 158.914C124.638 157.344 127.754 156.559 131.275 156.559C134.795 156.559 137.817 157.344 140.338 158.914C142.86 160.436 144.81 162.458 146.19 164.98C147.618 167.502 148.331 170.309 148.331 173.401C148.331 173.877 148.331 174.4 148.331 174.971C148.331 175.542 148.284 176.137 148.188 176.755H118.643V171.76H141.195C141.052 168.715 140.053 166.36 138.197 164.694C136.342 162.982 134.01 162.125 131.203 162.125C129.3 162.125 127.516 162.553 125.851 163.41C124.233 164.266 122.925 165.551 121.926 167.264C120.927 168.976 120.427 171.141 120.427 173.758V175.756C120.427 178.373 120.927 180.585 121.926 182.393C122.925 184.154 124.233 185.486 125.851 186.39C127.516 187.294 129.276 187.746 131.132 187.746C133.416 187.746 135.295 187.246 136.77 186.247C138.292 185.2 139.41 183.797 140.124 182.036H147.332C146.666 184.273 145.595 186.271 144.121 188.031C142.646 189.744 140.814 191.124 138.625 192.17C136.484 193.17 134.01 193.669 131.203 193.669Z" fill="#FBFBFB"/>
<path d="M61.4891 192.813L49 142.856H56.4221L67.0557 187.888H67.3411L79.4734 142.856H87.3237L99.8128 187.888H100.098L110.446 142.856H117.868L105.308 192.813H94.4603L83.4699 153.347H83.1844L72.2654 192.813H61.4891Z" fill="#FBFBFB"/>
<path d="M255.611 257.899C253.66 257.899 251.828 257.613 250.115 257.042C248.403 256.471 246.856 255.639 245.477 254.544C244.144 253.45 242.955 252.07 241.908 250.405H241.623L241.123 257.042H235.128V207.086H242.265V227.068C243.407 225.451 245.025 224 247.118 222.715C249.211 221.431 251.828 220.788 254.968 220.788C258.632 220.788 261.748 221.597 264.317 223.215C266.886 224.832 268.837 227.045 270.169 229.852C271.549 232.659 272.239 235.823 272.239 239.343C272.239 242.864 271.549 246.028 270.169 248.835C268.837 251.642 266.91 253.855 264.389 255.472C261.915 257.09 258.989 257.899 255.611 257.899ZM253.684 251.833C256.015 251.833 258.013 251.309 259.678 250.263C261.391 249.216 262.7 247.765 263.604 245.909C264.555 244.006 265.031 241.818 265.031 239.343C265.031 236.822 264.555 234.633 263.604 232.778C262.7 230.922 261.391 229.471 259.678 228.424C258.013 227.378 256.015 226.854 253.684 226.854C251.4 226.854 249.402 227.378 247.689 228.424C245.976 229.471 244.644 230.922 243.692 232.778C242.788 234.633 242.336 236.822 242.336 239.343C242.336 241.818 242.788 244.006 243.692 245.909C244.644 247.765 245.976 249.216 247.689 250.263C249.402 251.309 251.4 251.833 253.684 251.833Z" fill="#FBFBFB"/>
<path d="M216.203 257.899C212.73 257.899 209.661 257.138 206.997 255.615C204.333 254.045 202.239 251.88 200.717 249.121C199.194 246.361 198.433 243.126 198.433 239.415C198.433 235.704 199.171 232.469 200.645 229.709C202.168 226.902 204.261 224.713 206.926 223.143C209.638 221.573 212.754 220.788 216.275 220.788C219.795 220.788 222.817 221.573 225.338 223.143C227.86 224.666 229.81 226.688 231.19 229.21C232.618 231.731 233.331 234.538 233.331 237.631C233.331 238.107 233.331 238.63 233.331 239.201C233.331 239.772 233.284 240.366 233.188 240.985H203.643V235.989H226.195C226.052 232.944 225.053 230.589 223.197 228.924C221.342 227.211 219.01 226.355 216.203 226.355C214.3 226.355 212.516 226.783 210.851 227.639C209.233 228.496 207.925 229.78 206.926 231.493C205.927 233.206 205.427 235.371 205.427 237.988V239.986C205.427 242.603 205.927 244.815 206.926 246.623C207.925 248.383 209.233 249.715 210.851 250.619C212.516 251.523 214.276 251.975 216.132 251.975C218.416 251.975 220.295 251.476 221.77 250.477C223.292 249.43 224.41 248.026 225.124 246.266H232.332C231.666 248.502 230.595 250.5 229.121 252.261C227.646 253.974 225.814 255.353 223.625 256.4C221.484 257.399 219.01 257.899 216.203 257.899Z" fill="#FBFBFB"/>
<path d="M146.489 257.042L134 207.086H141.422L152.056 252.118H152.341L164.473 207.086H172.324L184.813 252.118H185.098L195.446 207.086H202.868L190.308 257.042H179.46L168.47 217.577H168.184L157.265 257.042H146.489Z" fill="#FBFBFB"/>
</svg>
