<?xml version="1.0" standalone="no"?>
<!DOCTYPE svg PUBLIC "-//W3C//DTD SVG 20010904//EN"
 "http://www.w3.org/TR/2001/REC-SVG-20010904/DTD/svg10.dtd">
<svg version="1.0" xmlns="http://www.w3.org/2000/svg"
 width="273.000000pt" height="273.000000pt" viewBox="0 0 273.000000 273.000000"
 preserveAspectRatio="xMidYMid meet">
<metadata>
Created by potrace 1.14, written by Peter Selinger 2001-2017
</metadata>
<g transform="translate(0.000000,273.000000) scale(0.100000,-0.100000)"
fill="#000000" stroke="none">
<path d="M0 1365 l0 -1365 1365 0 1365 0 0 1365 0 1365 -1365 0 -1365 0 0
-1365z m284 113 c31 -128 61 -257 68 -285 6 -29 14 -53 17 -53 3 0 35 107 71
238 35 130 70 258 78 285 l14 47 54 0 c30 0 54 -2 54 -4 0 -2 29 -113 65 -247
36 -134 71 -262 76 -284 8 -27 13 -35 18 -25 4 8 36 138 72 287 l64 273 53 0
c46 0 53 -2 48 -17 -3 -10 -40 -142 -81 -293 -42 -151 -82 -299 -91 -328 l-15
-53 -57 3 -57 3 -74 267 c-41 148 -77 265 -80 262 -3 -3 -40 -123 -82 -267
l-76 -262 -56 -3 -55 -3 -16 53 c-38 134 -166 615 -166 626 0 8 18 12 49 12
l49 0 56 -232z m1198 203 c68 -26 132 -85 161 -149 19 -40 22 -65 22 -167 0
-111 -2 -124 -28 -177 -33 -68 -82 -111 -157 -139 -44 -16 -88 -22 -217 -26
l-163 -6 0 348 0 348 163 -5 c133 -5 172 -10 219 -27z m367 -223 c34 -139 64
-268 67 -285 4 -18 9 -33 13 -33 5 0 57 184 153 538 9 31 10 32 63 32 l54 0
11 -42 c6 -24 35 -133 65 -243 29 -110 59 -220 65 -244 6 -23 14 -41 17 -38 3
3 35 131 72 284 l66 278 53 3 c28 2 52 2 52 0 0 -2 -43 -156 -94 -343 l-94
-340 -58 0 -58 0 -75 268 c-41 147 -77 265 -80 261 -3 -3 -40 -123 -81 -267
l-76 -262 -56 -3 c-47 -2 -57 0 -62 15 -18 60 -176 654 -176 662 0 6 21 11 49
11 l49 0 61 -252z"/>
<path d="M1202 1369 l3 -264 86 1 c157 1 233 41 265 137 25 75 23 188 -5 254
-41 95 -94 123 -249 131 l-102 5 2 -264z"/>
</g>
</svg>
